<svg width="512" height="512" viewBox="0 0 512 512" fill="none" xmlns="http://www.w3.org/2000/svg">
<path d="M244.117 381.883C244.12 381.886 244.123 381.888 244.126 381.891C244.504 382.268 244.901 382.625 245.314 382.964C245.503 383.12 245.703 383.255 245.897 383.401C246.129 383.575 246.356 383.754 246.598 383.916C246.83 384.071 247.071 384.206 247.31 384.349C247.529 384.48 247.743 384.617 247.968 384.737C248.211 384.867 248.462 384.977 248.711 385.094C248.945 385.205 249.176 385.322 249.417 385.422C249.658 385.522 249.904 385.603 250.149 385.69C250.407 385.783 250.661 385.881 250.925 385.961C251.17 386.035 251.419 386.09 251.667 386.152C251.935 386.22 252.201 386.295 252.475 386.349C252.762 386.406 253.052 386.44 253.34 386.481C253.578 386.515 253.814 386.56 254.055 386.584C255.127 386.69 256.207 386.69 257.279 386.584C257.52 386.56 257.755 386.515 257.993 386.481C258.282 386.44 258.571 386.406 258.858 386.349C259.132 386.295 259.398 386.22 259.667 386.152C259.914 386.09 260.164 386.035 260.409 385.961C260.672 385.881 260.927 385.783 261.184 385.69C261.429 385.602 261.676 385.522 261.917 385.422C262.157 385.322 262.389 385.205 262.623 385.094C262.872 384.977 263.122 384.867 263.365 384.737C263.591 384.617 263.804 384.479 264.023 384.349C264.262 384.206 264.503 384.071 264.736 383.916C264.977 383.754 265.204 383.575 265.436 383.401C265.631 383.255 265.831 383.12 266.02 382.964C266.433 382.625 266.83 382.268 267.207 381.891C267.21 381.888 267.213 381.886 267.217 381.883L381.55 267.549C387.928 261.171 387.928 250.829 381.55 244.451C375.171 238.072 364.829 238.072 358.451 244.451L271.999 330.901V76.3331C271.999 67.3125 264.687 60 255.666 60C246.646 60 239.333 67.3125 239.333 76.3331V330.901L152.883 244.451C146.504 238.072 136.162 238.072 129.784 244.451C123.405 250.829 123.405 261.171 129.784 267.549L244.117 381.883Z" fill="#ADADAD"/>
<path d="M369.999 419.333H141.333C132.313 419.333 125 426.646 125 435.666C125 444.687 132.313 452 141.333 452H370C379.021 452 386.333 444.687 386.333 435.667C386.333 426.646 379.02 419.333 369.999 419.333Z" fill="#ADADAD"/>
</svg>
