<svg width="836" height="600" viewBox="0 0 836 600" fill="none" xmlns="http://www.w3.org/2000/svg">
<path d="M247 122H169V222H247V122Z" fill="#333333"/>
<path d="M200.398 167.056H194.566V170.134C194.818 169.822 195.178 169.57 195.646 169.378C196.114 169.174 196.612 169.072 197.14 169.072C198.1 169.072 198.886 169.282 199.498 169.702C200.11 170.122 200.554 170.662 200.83 171.322C201.106 171.97 201.244 172.666 201.244 173.41C201.244 174.79 200.848 175.9 200.056 176.74C199.276 177.58 198.16 178 196.708 178C195.34 178 194.248 177.658 193.432 176.974C192.616 176.29 192.154 175.396 192.046 174.292H194.494C194.602 174.772 194.842 175.156 195.214 175.444C195.598 175.732 196.084 175.876 196.672 175.876C197.38 175.876 197.914 175.654 198.274 175.21C198.634 174.766 198.814 174.178 198.814 173.446C198.814 172.702 198.628 172.138 198.256 171.754C197.896 171.358 197.362 171.16 196.654 171.16C196.15 171.16 195.73 171.286 195.394 171.538C195.058 171.79 194.818 172.126 194.674 172.546H192.262V164.842H200.398V167.056ZM211.982 167.056H206.15V170.134C206.402 169.822 206.762 169.57 207.23 169.378C207.698 169.174 208.196 169.072 208.724 169.072C209.684 169.072 210.47 169.282 211.082 169.702C211.694 170.122 212.138 170.662 212.414 171.322C212.69 171.97 212.828 172.666 212.828 173.41C212.828 174.79 212.432 175.9 211.64 176.74C210.86 177.58 209.744 178 208.292 178C206.924 178 205.832 177.658 205.016 176.974C204.2 176.29 203.738 175.396 203.63 174.292H206.078C206.186 174.772 206.426 175.156 206.798 175.444C207.182 175.732 207.668 175.876 208.256 175.876C208.964 175.876 209.498 175.654 209.858 175.21C210.218 174.766 210.398 174.178 210.398 173.446C210.398 172.702 210.212 172.138 209.84 171.754C209.48 171.358 208.946 171.16 208.238 171.16C207.734 171.16 207.314 171.286 206.978 171.538C206.642 171.79 206.402 172.126 206.258 172.546H203.846V164.842H211.982V167.056ZM223.566 167.056H217.734V170.134C217.986 169.822 218.346 169.57 218.814 169.378C219.282 169.174 219.78 169.072 220.308 169.072C221.268 169.072 222.054 169.282 222.666 169.702C223.278 170.122 223.722 170.662 223.998 171.322C224.274 171.97 224.412 172.666 224.412 173.41C224.412 174.79 224.016 175.9 223.224 176.74C222.444 177.58 221.328 178 219.876 178C218.508 178 217.416 177.658 216.6 176.974C215.784 176.29 215.322 175.396 215.214 174.292H217.662C217.77 174.772 218.01 175.156 218.382 175.444C218.766 175.732 219.252 175.876 219.84 175.876C220.548 175.876 221.082 175.654 221.442 175.21C221.802 174.766 221.982 174.178 221.982 173.446C221.982 172.702 221.796 172.138 221.424 171.754C221.064 171.358 220.53 171.16 219.822 171.16C219.318 171.16 218.898 171.286 218.562 171.538C218.226 171.79 217.986 172.126 217.842 172.546H215.43V164.842H223.566V167.056Z" fill="white"/>
<path d="M254 132H239V137H254V132Z" fill="#C4C4C4"/>
<path d="M254 157H239V162H254V157Z" fill="#C4C4C4"/>
<path d="M254 182H239V187H254V182Z" fill="#C4C4C4"/>
<path d="M254 207H239V212H254V207Z" fill="#C4C4C4"/>
<path d="M176 132H161V137H176V132Z" fill="#C4C4C4"/>
<path d="M176 157H161V162H176V157Z" fill="#C4C4C4"/>
<path d="M176 182H161V187H176V182Z" fill="#C4C4C4"/>
<path d="M176 207H161V212H176V207Z" fill="#C4C4C4"/>
<path d="M247 345H169V490H247V345Z" fill="#333333"/>
<path d="M195.404 412.786L190.616 424H188.06L192.884 413.074H186.728V410.914H195.404V412.786ZM196.805 421.444V419.464L202.691 411.04H205.625V419.248H207.209V421.444H205.625V424H203.105V421.444H196.805ZM203.267 413.74L199.577 419.248H203.267V413.74ZM211.729 420.31C211.825 420.838 212.041 421.246 212.377 421.534C212.725 421.81 213.187 421.948 213.763 421.948C214.507 421.948 215.047 421.642 215.383 421.03C215.719 420.406 215.887 419.362 215.887 417.898C215.611 418.282 215.221 418.582 214.717 418.798C214.225 419.014 213.691 419.122 213.115 419.122C212.347 419.122 211.651 418.966 211.027 418.654C210.415 418.33 209.929 417.856 209.569 417.232C209.209 416.596 209.029 415.828 209.029 414.928C209.029 413.596 209.425 412.54 210.217 411.76C211.009 410.968 212.089 410.572 213.457 410.572C215.161 410.572 216.361 411.118 217.057 412.21C217.765 413.302 218.119 414.946 218.119 417.142C218.119 418.702 217.981 419.98 217.705 420.976C217.441 421.972 216.979 422.728 216.319 423.244C215.671 423.76 214.783 424.018 213.655 424.018C212.767 424.018 212.011 423.85 211.387 423.514C210.763 423.166 210.283 422.716 209.947 422.164C209.623 421.6 209.437 420.982 209.389 420.31H211.729ZM213.637 417.07C214.261 417.07 214.753 416.878 215.113 416.494C215.473 416.11 215.653 415.594 215.653 414.946C215.653 414.238 215.461 413.692 215.077 413.308C214.705 412.912 214.195 412.714 213.547 412.714C212.899 412.714 212.383 412.918 211.999 413.326C211.627 413.722 211.441 414.25 211.441 414.91C211.441 415.546 211.621 416.068 211.981 416.476C212.353 416.872 212.905 417.07 213.637 417.07ZM220.117 414.334C220.177 413.134 220.597 412.21 221.377 411.562C222.169 410.902 223.207 410.572 224.491 410.572C225.367 410.572 226.117 410.728 226.741 411.04C227.365 411.34 227.833 411.754 228.145 412.282C228.469 412.798 228.631 413.386 228.631 414.046C228.631 414.802 228.433 415.444 228.037 415.972C227.653 416.488 227.191 416.836 226.651 417.016V417.088C227.347 417.304 227.887 417.688 228.271 418.24C228.667 418.792 228.865 419.5 228.865 420.364C228.865 421.084 228.697 421.726 228.361 422.29C228.037 422.854 227.551 423.298 226.903 423.622C226.267 423.934 225.499 424.09 224.599 424.09C223.243 424.09 222.139 423.748 221.287 423.064C220.435 422.38 219.985 421.372 219.937 420.04H222.385C222.409 420.628 222.607 421.102 222.979 421.462C223.363 421.81 223.885 421.984 224.545 421.984C225.157 421.984 225.625 421.816 225.949 421.48C226.285 421.132 226.453 420.688 226.453 420.148C226.453 419.428 226.225 418.912 225.769 418.6C225.313 418.288 224.605 418.132 223.645 418.132H223.123V416.062H223.645C225.349 416.062 226.201 415.492 226.201 414.352C226.201 413.836 226.045 413.434 225.733 413.146C225.433 412.858 224.995 412.714 224.419 412.714C223.855 412.714 223.417 412.87 223.105 413.182C222.805 413.482 222.631 413.866 222.583 414.334H220.117Z" fill="white"/>
<path d="M254 355H239V360H254V355Z" fill="#C4C4C4"/>
<path d="M254 375H239V380H254V375Z" fill="#C4C4C4"/>
<path d="M254 395H239V400H254V395Z" fill="#C4C4C4"/>
<path d="M254 415H239V420H254V415Z" fill="#C4C4C4"/>
<path d="M254 435H239V440H254V435Z" fill="#C4C4C4"/>
<path d="M254 455H239V460H254V455Z" fill="#C4C4C4"/>
<path d="M254 475H239V480H254V475Z" fill="#C4C4C4"/>
<path d="M176 355H161V360H176V355Z" fill="#C4C4C4"/>
<path d="M176 375H161V380H176V375Z" fill="#C4C4C4"/>
<path d="M176 395H161V400H176V395Z" fill="#C4C4C4"/>
<path d="M176 415H161V420H176V415Z" fill="#C4C4C4"/>
<path d="M176 435H161V440H176V435Z" fill="#C4C4C4"/>
<path d="M176 455H161V460H176V455Z" fill="#C4C4C4"/>
<path d="M176 475H161V480H176V475Z" fill="#C4C4C4"/>
<path d="M507 325H429V490H507V325Z" fill="#333333"/>
<path d="M455.544 402.786L450.756 414H448.2L453.024 403.074H446.868V400.914H455.544V402.786ZM456.946 411.444V409.464L462.832 401.04H465.766V409.248H467.35V411.444H465.766V414H463.246V411.444H456.946ZM463.408 403.74L459.718 409.248H463.408V403.74ZM468.846 411.444V409.464L474.732 401.04H477.666V409.248H479.25V411.444H477.666V414H475.146V411.444H468.846ZM475.308 403.74L471.618 409.248H475.308V403.74ZM489.206 402.786L484.418 414H481.862L486.686 403.074H480.53V400.914H489.206V402.786Z" fill="white"/>
<path d="M514 335H499V340H514V335Z" fill="#C4C4C4"/>
<path d="M514 355H499V360H514V355Z" fill="#C4C4C4"/>
<path d="M514 375H499V380H514V375Z" fill="#C4C4C4"/>
<path d="M514 395H499V400H514V395Z" fill="#C4C4C4"/>
<path d="M514 415H499V420H514V415Z" fill="#C4C4C4"/>
<path d="M514 435H499V440H514V435Z" fill="#C4C4C4"/>
<path d="M514 455H499V460H514V455Z" fill="#C4C4C4"/>
<path d="M514 475H499V480H514V475Z" fill="#C4C4C4"/>
<path d="M436 335H421V340H436V335Z" fill="#C4C4C4"/>
<path d="M436 355H421V360H436V355Z" fill="#C4C4C4"/>
<path d="M436 375H421V380H436V375Z" fill="#C4C4C4"/>
<path d="M436 395H421V400H436V395Z" fill="#C4C4C4"/>
<path d="M436 415H421V420H436V415Z" fill="#C4C4C4"/>
<path d="M436 435H421V440H436V435Z" fill="#C4C4C4"/>
<path d="M436 455H421V460H436V455Z" fill="#C4C4C4"/>
<path d="M436 475H421V480H436V475Z" fill="#C4C4C4"/>
<path d="M507 122H429V267H507V122Z" fill="#333333"/>
<path d="M454.824 189.786L450.036 201H447.48L452.304 190.074H446.148V187.914H454.824V189.786ZM456.225 198.444V196.464L462.111 188.04H465.045V196.248H466.629V198.444H465.045V201H462.525V198.444H456.225ZM462.687 190.74L458.997 196.248H462.687V190.74ZM468.233 194.268C468.233 192.192 468.605 190.566 469.349 189.39C470.105 188.214 471.353 187.626 473.093 187.626C474.833 187.626 476.075 188.214 476.819 189.39C477.575 190.566 477.953 192.192 477.953 194.268C477.953 196.356 477.575 197.994 476.819 199.182C476.075 200.37 474.833 200.964 473.093 200.964C471.353 200.964 470.105 200.37 469.349 199.182C468.605 197.994 468.233 196.356 468.233 194.268ZM475.469 194.268C475.469 193.38 475.409 192.636 475.289 192.036C475.181 191.424 474.953 190.926 474.605 190.542C474.269 190.158 473.765 189.966 473.093 189.966C472.421 189.966 471.911 190.158 471.563 190.542C471.227 190.926 470.999 191.424 470.879 192.036C470.771 192.636 470.717 193.38 470.717 194.268C470.717 195.18 470.771 195.948 470.879 196.572C470.987 197.184 471.215 197.682 471.563 198.066C471.911 198.438 472.421 198.624 473.093 198.624C473.765 198.624 474.275 198.438 474.623 198.066C474.971 197.682 475.199 197.184 475.307 196.572C475.415 195.948 475.469 195.18 475.469 194.268ZM482.066 194.052C480.866 193.428 480.266 192.462 480.266 191.154C480.266 190.506 480.428 189.918 480.752 189.39C481.088 188.85 481.586 188.424 482.246 188.112C482.918 187.788 483.734 187.626 484.694 187.626C485.654 187.626 486.464 187.788 487.124 188.112C487.796 188.424 488.294 188.85 488.618 189.39C488.954 189.918 489.122 190.506 489.122 191.154C489.122 191.814 488.96 192.396 488.636 192.9C488.312 193.392 487.88 193.776 487.34 194.052C488 194.34 488.516 194.76 488.888 195.312C489.26 195.864 489.446 196.518 489.446 197.274C489.446 198.09 489.236 198.804 488.816 199.416C488.408 200.016 487.844 200.478 487.124 200.802C486.404 201.126 485.594 201.288 484.694 201.288C483.794 201.288 482.984 201.126 482.264 200.802C481.556 200.478 480.992 200.016 480.572 199.416C480.164 198.804 479.96 198.09 479.96 197.274C479.96 196.518 480.146 195.864 480.518 195.312C480.89 194.748 481.406 194.328 482.066 194.052ZM486.674 191.514C486.674 190.926 486.494 190.47 486.134 190.146C485.786 189.822 485.306 189.66 484.694 189.66C484.094 189.66 483.614 189.822 483.254 190.146C482.906 190.47 482.732 190.932 482.732 191.532C482.732 192.072 482.912 192.504 483.272 192.828C483.644 193.152 484.118 193.314 484.694 193.314C485.27 193.314 485.744 193.152 486.116 192.828C486.488 192.492 486.674 192.054 486.674 191.514ZM484.694 195.15C484.01 195.15 483.452 195.324 483.02 195.672C482.6 196.02 482.39 196.518 482.39 197.166C482.39 197.766 482.594 198.258 483.002 198.642C483.422 199.014 483.986 199.2 484.694 199.2C485.402 199.2 485.96 199.008 486.368 198.624C486.776 198.24 486.98 197.754 486.98 197.166C486.98 196.53 486.77 196.038 486.35 195.69C485.93 195.33 485.378 195.15 484.694 195.15Z" fill="white"/>
<path d="M514 132H499V137H514V132Z" fill="#C4C4C4"/>
<path d="M514 152H499V157H514V152Z" fill="#C4C4C4"/>
<path d="M514 172H499V177H514V172Z" fill="#C4C4C4"/>
<path d="M514 192H499V197H514V192Z" fill="#C4C4C4"/>
<path d="M514 212H499V217H514V212Z" fill="#C4C4C4"/>
<path d="M514 232H499V237H514V232Z" fill="#C4C4C4"/>
<path d="M514 252H499V257H514V252Z" fill="#C4C4C4"/>
<path d="M436 132H421V137H436V132Z" fill="#C4C4C4"/>
<path d="M436 152H421V157H436V152Z" fill="#C4C4C4"/>
<path d="M436 172H421V177H436V172Z" fill="#C4C4C4"/>
<path d="M436 192H421V197H436V192Z" fill="#C4C4C4"/>
<path d="M436 212H421V217H436V212Z" fill="#C4C4C4"/>
<path d="M436 232H421V237H436V232Z" fill="#C4C4C4"/>
<path d="M436 252H421V257H436V252Z" fill="#C4C4C4"/>
<path d="M757 331H662V490H757V331Z" fill="#E2E2E2"/>
<path d="M680.086 407.965V413.036H738.915V407.965H680.086Z" fill="#FF0000"/>
<path d="M679.071 348.121H674V406.95H679.071V348.121Z" fill="#FF0000"/>
<path d="M679.071 414.05H674V472.879H679.071V414.05Z" fill="#FF0000"/>
<path d="M680.086 473.893V478.964H738.915V473.893H680.086Z" fill="#FF0000"/>
<path d="M745 414.05H739.929V472.879H745V414.05Z" fill="#FF0000"/>
<path d="M745 348.121H739.929V406.95H745V348.121Z" fill="#FF0000"/>
<path d="M680.086 342.036V347.107H738.915V342.036H680.086Z" fill="#FF0000"/>
<path d="M663 316V331H668V316H663Z" fill="#C4C4C4"/>
<path d="M685 316V331H690V316H685Z" fill="#C4C4C4"/>
<path d="M707 316V331H712V316H707Z" fill="#C4C4C4"/>
<path d="M729 316V331H734V316H729Z" fill="#C4C4C4"/>
<path d="M751 316V331H756V316H751Z" fill="#C4C4C4"/>
<path d="M663 490V505H668V490H663Z" fill="#C4C4C4"/>
<path d="M685 490V505H690V490H685Z" fill="#C4C4C4"/>
<path d="M707 490V505H712V490H707Z" fill="#C4C4C4"/>
<path d="M729 490V505H734V490H729Z" fill="#C4C4C4"/>
<path d="M751 490V505H756V490H751Z" fill="#C4C4C4"/>
<path d="M341 152H295V167H341V152Z" fill="#2F3180"/>
<path d="M303.52 152H300.52V167H303.52V152Z" fill="#108690"/>
<path d="M313.867 152H310.867V167H313.867V152Z" fill="#DD4343"/>
<path d="M324.213 152H321.213V167H324.213V152Z" fill="#FFE169"/>
<path d="M334.56 152H331.56V167H334.56V152Z" fill="#C4C4C4"/>
<path d="M341 177H295V192H341V177Z" fill="#2F3180"/>
<path d="M303.52 177H300.52V192H303.52V177Z" fill="#108690"/>
<path d="M313.867 177H310.867V192H313.867V177Z" fill="#DD4343"/>
<path d="M324.213 177H321.213V192H324.213V177Z" fill="#FFE169"/>
<path d="M334.56 177H331.56V192H334.56V177Z" fill="#C4C4C4"/>
<path d="M161 208H135V211H161V208Z" fill="#787878"/>
<path d="M161 356H135V359H161V356Z" fill="#787878"/>
<path d="M266 356H254V359H266V356Z" fill="#787878"/>
<path d="M360 396H254V399H360V396Z" fill="#787878"/>
<path d="M374 416H254V419H374V416Z" fill="#787878"/>
<path d="M367 456H254V459H367V456Z" fill="#787878"/>
<path d="M421 456H371V459H421V456Z" fill="#787878"/>
<path d="M374 448H357V451H374V448Z" fill="#787878"/>
<path d="M421 336H364V339H421V336Z" fill="#787878"/>
<path d="M658 396H514V399H658V396Z" fill="#787878"/>
<path d="M651 416H514V419H651V416Z" fill="#787878"/>
<path d="M644 436H514V439H644V436Z" fill="#787878"/>
<path d="M637 456H514V459H637V456Z" fill="#787878"/>
<path d="M733 304H655V307H733V304Z" fill="#787878"/>
<path d="M689 290H641V293H689V290Z" fill="#787878"/>
<path d="M667 283H634V286H667V283Z" fill="#787878"/>
<path d="M755 297H648V300H755V297Z" fill="#787878"/>
<path d="M733 514H641V517H733V514Z" fill="#787878"/>
<path d="M689 521H634V524H689V521Z" fill="#787878"/>
<path d="M667 528H627V531H667V528Z" fill="#787878"/>
<path d="M655 304V399H658V304H655Z" fill="#787878"/>
<path d="M641 290V359H644V290H641Z" fill="#787878"/>
<path d="M634 284V379H637V284H634Z" fill="#787878"/>
<path d="M648 297V419H651V297H648Z" fill="#787878"/>
<path d="M641 517V439H644V517H641Z" fill="#787878"/>
<path d="M634 524V456H637V524H634Z" fill="#787878"/>
<path d="M627 531V476H630V531H627Z" fill="#787878"/>
<path d="M708 201V316H711V201H708Z" fill="#787878"/>
<path d="M752 297V316H755V297H752Z" fill="#787878"/>
<path d="M686 290V316H689V290H686Z" fill="#787878"/>
<path d="M664 283V316H667V283H664Z" fill="#787878"/>
<path d="M730 505V517H733V505H730Z" fill="#787878"/>
<path d="M686 505V524H689V505H686Z" fill="#787878"/>
<path d="M664 505V531H667V505H664Z" fill="#787878"/>
<path d="M730 304V316H733V304H730Z" fill="#787878"/>
<path d="M421 356H351V359H421V356Z" fill="#787878"/>
<path d="M421 376H392V379H421V376Z" fill="#787878"/>
<path d="M421 396H395V399H421V396Z" fill="#787878"/>
<path d="M421 416H395V419H421V416Z" fill="#787878"/>
<path d="M421 476H409V479H421V476Z" fill="#787878"/>
<path d="M514 339L526 339L526 336L514 336L514 339Z" fill="#787878"/>
<path d="M514 359.001L643.868 358.996L643.868 355.996L514 356.001L514 359.001Z" fill="#787878"/>
<path d="M514 379.001L636.854 378.997L636.854 375.997L514 376.001L514 379.001Z" fill="#787878"/>
<path d="M514 479.001L629.529 478.997L629.529 475.997L514 476.001L514 479.001Z" fill="#787878"/>
<path d="M421 436H371V439H421V436Z" fill="#787878"/>
<path d="M353 476H254V479H353V476Z" fill="#787878"/>
<path d="M278 396H265V399H278V396Z" fill="#787878"/>
<path d="M300 476H254V479H300V476Z" fill="#787878"/>
<path d="M266 436H254V439H266V436Z" fill="#787878"/>
<path d="M161 436H149V439H161V436Z" fill="#787878"/>
<path d="M161 376H149V379H161V376Z" fill="#787878"/>
<path d="M161 396H142V399H161V396Z" fill="#787878"/>
<path d="M278 323H149V326H278V323Z" fill="#787878"/>
<path d="M421 233H304V236H421V233Z" fill="#787878"/>
<path d="M421 253H409V256H421V253Z" fill="#787878"/>
<path d="M529 133H514V136H529V133Z" fill="#787878"/>
<path d="M800 201H526V204H800V201Z" fill="#787878"/>
<path d="M421 213H297V216H421V213Z" fill="#787878"/>
<path d="M421 193H372V196H421V193Z" fill="#787878"/>
<path d="M372 206H290V209H372V206Z" fill="#787878"/>
<path d="M307 311H142V314H307V311Z" fill="#787878"/>
<path d="M263 356V399H266V356H263Z" fill="#787878"/>
<path d="M304 233V314H307V233H304Z" fill="#787878"/>
<path d="M409 253V274H412V253H409Z" fill="#787878"/>
<path d="M372 194V209H375V194H372Z" fill="#787878"/>
<path d="M357 397V448H360V397H357Z" fill="#787878"/>
<path d="M364 336V457H367V336H364Z" fill="#787878"/>
<path d="M371 416V439H374V416H371Z" fill="#787878"/>
<path d="M371 448V459H374V448H371Z" fill="#787878"/>
<path d="M392 376V551H395V376H392Z" fill="#787878"/>
<path d="M797 32V551H800V32H797Z" fill="#787878"/>
<path d="M350 356V477H353V356H350Z" fill="#787878"/>
<path d="M409 476V497H412V476H409Z" fill="#787878"/>
<path d="M529.001 339L528.997 201.202L525.997 201.202L526.001 339L529.001 339Z" fill="#787878"/>
<path d="M275 326V399H278V326H275Z" fill="#787878"/>
<path d="M290 206V458H293V206H290Z" fill="#787878"/>
<path d="M297 213V479H300V213H297Z" fill="#787878"/>
<path d="M263 436V494H266V436H263Z" fill="#787878"/>
<path d="M149 436V551H152V436H149Z" fill="#787878"/>
<path d="M526 32V135H529V32H526Z" fill="#787878"/>
<path d="M149 324V379H152V324H149Z" fill="#787878"/>
<path d="M142 314V397H145V314H142Z" fill="#787878"/>
<path d="M161 158H149V161H161V158Z" fill="#787878"/>
<path d="M161 133H40V136H161V133Z" fill="#787878"/>
<path d="M151 169H99V172H151V169Z" fill="#787878"/>
<path d="M275 158H254V161H275V158Z" fill="#787878"/>
<path d="M275 183H254V186H275V183Z" fill="#787878"/>
<path d="M295 158H274V161H295V158Z" fill="#787878"/>
<path d="M362 133H254V136H362V133Z" fill="#787878"/>
<path d="M800 548H152V551H800V548Z" fill="#787878"/>
<path d="M800 31H51V34H800V31Z" fill="#787878"/>
<path d="M295 183H274V186H295V183Z" fill="#787878"/>
<path d="M362 158H341V161H362V158Z" fill="#787878"/>
<path d="M362 183H341V186H362V183Z" fill="#787878"/>
<path d="M273 237H149V240H273V237Z" fill="#787878"/>
<path d="M149 158V240H152V158H149Z" fill="#787878"/>
<path d="M135 208V359H138V208H135Z" fill="#787878"/>
<path d="M40 134V157H43V134H40Z" fill="#787878"/>
<path d="M99 159V172H102V159H99Z" fill="#787878"/>
<path d="M128 159V172H131V159H128Z" fill="#787878"/>
<path d="M99 136V148H102V136H99Z" fill="#787878"/>
<path d="M128 136V148H131V136H128Z" fill="#787878"/>
<path d="M273 158V240H276V158H273Z" fill="#787878"/>
<path d="M359 34V161H362V34H359Z" fill="#787878"/>
<path d="M359 156V186H362V156H359Z" fill="#787878"/>
<path d="M150.5 174C152.433 174 154 172.433 154 170.5C154 168.567 152.433 167 150.5 167C148.567 167 147 168.567 147 170.5C147 172.433 148.567 174 150.5 174Z" fill="#333333"/>
<path d="M129.5 174C131.433 174 133 172.433 133 170.5C133 168.567 131.433 167 129.5 167C127.567 167 126 168.567 126 170.5C126 172.433 127.567 174 129.5 174Z" fill="#333333"/>
<path d="M100.5 138C102.433 138 104 136.433 104 134.5C104 132.567 102.433 131 100.5 131C98.567 131 97 132.567 97 134.5C97 136.433 98.567 138 100.5 138Z" fill="#333333"/>
<path d="M264.5 401C266.433 401 268 399.433 268 397.5C268 395.567 266.433 394 264.5 394C262.567 394 261 395.567 261 397.5C261 399.433 262.567 401 264.5 401Z" fill="#333333"/>
<path d="M291.5 461C293.433 461 295 459.433 295 457.5C295 455.567 293.433 454 291.5 454C289.567 454 288 455.567 288 457.5C288 459.433 289.567 461 291.5 461Z" fill="#333333"/>
<path d="M298.5 481C300.433 481 302 479.433 302 477.5C302 475.567 300.433 474 298.5 474C296.567 474 295 475.567 295 477.5C295 479.433 296.567 481 298.5 481Z" fill="#333333"/>
<path d="M393.5 401C395.433 401 397 399.433 397 397.5C397 395.567 395.433 394 393.5 394C391.567 394 390 395.567 390 397.5C390 399.433 391.567 401 393.5 401Z" fill="#333333"/>
<path d="M393.5 421C395.433 421 397 419.433 397 417.5C397 415.567 395.433 414 393.5 414C391.567 414 390 415.567 390 417.5C390 419.433 391.567 421 393.5 421Z" fill="#333333"/>
<path d="M275.5 401C277.433 401 279 399.433 279 397.5C279 395.567 277.433 394 275.5 394C273.567 394 272 395.567 272 397.5C272 399.433 273.567 401 275.5 401Z" fill="#333333"/>
<path d="M129.5 138C131.433 138 133 136.433 133 134.5C133 132.567 131.433 131 129.5 131C127.567 131 126 132.567 126 134.5C126 136.433 127.567 138 129.5 138Z" fill="#333333"/>
<path d="M54 156H29V159H54V156Z" fill="#333333"/>
<path d="M423 274H398V277H423V274Z" fill="#333333"/>
<path d="M423 497H398V500H423V497Z" fill="#333333"/>
<path d="M277 494H252V497H277V494Z" fill="#333333"/>
<path d="M113 145H88V148H113V145Z" fill="#333333"/>
<path d="M113 156H88V159H113V156Z" fill="#333333"/>
<path d="M142 145H117V148H142V145Z" fill="#333333"/>
<path d="M142 156H117V159H142V156Z" fill="#333333"/>
<path d="M42 40.5C46.6944 40.5 50.5 36.6944 50.5 32C50.5 27.3056 46.6944 23.5 42 23.5C37.3056 23.5 33.5 27.3056 33.5 32C33.5 36.6944 37.3056 40.5 42 40.5Z" stroke="black" stroke-width="3"/>
</svg>
