<svg width="92" height="60" viewBox="0 0 92 60" fill="none" xmlns="http://www.w3.org/2000/svg">
<path d="M5.69153 36.9275V37.4342H6.22841H6.76529H7.30217H7.83611H8.37299H8.90694H9.44088H9.97189H10.5058H11.0369H11.5679H12.0989H12.6299H13.1609H13.6919H14.2229H14.7539H15.2849H15.816H16.347H16.878H17.4119H17.9429H18.4769H19.0079H19.5418H20.0758H20.6127H21.1466H21.6835H22.2233H22.7602L24.1361 37.4797L25.3976 37.6135L26.5477 37.8327L27.598 38.1288L28.5456 38.496L29.3993 38.9315L30.165 39.4297L30.8427 39.9848L31.4383 40.5883L31.9605 41.2402L32.4064 41.932L32.7878 42.6607L33.1076 43.4179L33.3658 44.2008L33.5711 45.0007L33.7295 45.8177L33.841 46.6404L33.9114 47.4688L33.9496 48.2944L33.9554 49.1114L33.9349 49.917L33.8938 50.7027L33.8322 51.4684L33.7618 52.2029L33.6826 52.9032L33.6005 53.5665L33.5183 54.1842L33.442 54.7507L33.3746 55.2631L33.3247 55.7129L33.2924 56.0972L33.2865 56.4132H36.2027L36.5665 54.893L36.9303 53.37L37.2941 51.8414L37.6549 50.3098L38.0187 48.7698L38.3796 47.2268L38.7375 45.6811L39.0983 44.1296L39.4563 42.5753L39.8171 41.0182L40.175 39.461L40.533 37.901L40.8909 36.3382L41.2459 34.7754L41.6038 33.2097L41.9617 31.644L42.3196 30.0811L42.6746 28.5154L43.0325 26.9526L43.3904 25.3898L43.7484 23.8298L44.1063 22.2698L44.4642 20.7126L44.8251 19.1612L45.183 17.6097L45.5438 16.064L45.9047 14.521L46.2655 12.981L46.6293 11.4466L46.9931 9.91792L47.3569 8.39493L47.7207 6.87764L47.5975 8.02486L47.4948 9.19201L47.4214 10.3791L47.3716 11.5832L47.354 12.7959L47.3716 14.0172L47.4214 15.2413L47.5065 16.4653L47.6327 17.6837L47.7999 18.8936L48.0141 20.092L48.2693 21.2763L48.5773 22.4406L48.9353 23.5793L49.346 24.6895L49.8125 25.7712L50.3347 26.816L50.9185 27.8209L51.5668 28.783L52.2768 29.6968L53.0543 30.5622L53.9021 31.3707L54.8204 32.1222L55.8149 32.8111L56.8828 33.4317L58.0299 33.984L59.2592 34.4622L60.5706 34.8608L61.9671 35.1767L63.4515 35.4102L65.027 35.5497L66.6934 35.5981H92V35.1397H66.5613L65.7311 35.1283L64.8832 35.0885L64.0207 35.0202L63.1523 34.9148L62.281 34.7697L61.4038 34.5818L60.5324 34.3427L59.664 34.0523L58.8074 33.705L57.9595 33.2979L57.1322 32.8225L56.3225 32.2788L55.5333 31.6582L54.7735 30.9608L54.0459 30.1808L53.3506 29.3125L52.6905 28.3532L52.0744 27.2971L51.5023 26.1413L50.9772 24.8802L50.5019 23.5081L50.0824 22.025L49.7244 20.4251L49.4252 18.7L49.1934 16.8525L49.0291 14.8712L48.9382 12.7561L48.9235 10.4986L48.9881 8.10172L49.1348 5.55392L49.3695 2.85525L49.6951 0H46.3418L45.9986 1.40912L45.6494 2.83532L45.3033 4.27006L44.9541 5.71903L44.605 7.17654L44.253 8.64544L43.9009 10.1229L43.5489 11.606L43.1968 13.0977L42.8418 14.5951L42.4898 16.0981L42.1348 17.604L41.7798 19.1156L41.4248 20.6301L41.0698 22.1445L40.7148 23.659L40.3599 25.1763L40.0049 26.6907L39.6499 28.2023L39.2949 29.7139L38.9428 31.2198L38.5879 32.7229L38.2358 34.2202L37.8838 35.7119L37.5317 37.1979L37.1797 38.6725L36.8305 40.1414L36.4814 41.5989L36.1323 43.0479L35.7861 44.4855L35.4399 45.9088L35.0937 47.3208L35.0673 47.2638L35.0439 47.1528L35.0263 46.9906L35.0116 46.7856L34.9911 46.5351L34.9676 46.2447L34.9353 45.9202L34.8913 45.5644L34.8326 45.1801L34.7593 44.773L34.6654 44.3431L34.5451 43.8962L34.4014 43.435L34.2283 42.9653L34.0259 42.4871L33.7853 42.0088L33.5066 41.5277L33.1897 41.0552L32.8259 40.5883L32.4152 40.1357L31.9576 39.6945L31.4441 39.276L30.8779 38.8803L30.2501 38.5074L29.5607 38.1686L28.8067 37.8612L27.9882 37.5907L27.0963 37.363L26.1282 37.178L25.0867 37.0413L23.966 36.9588L22.7602 36.9275H5.69153Z" fill="#00CCFF"/>
<path d="M41.9675 13.0806L41.9851 13.1062L41.9969 13.1319L42.0086 13.1575L42.0145 13.1803L42.0174 13.203V13.2258L42.0145 13.2486L42.0086 13.2714L41.9998 13.2913L41.9881 13.3141L41.9763 13.334L41.9587 13.3539L41.9411 13.3738L41.9235 13.3909L41.903 13.4108L41.8795 13.4279L41.8561 13.445L41.8326 13.4621L41.8091 13.4792L41.7827 13.4962L41.7563 13.5105L41.7299 13.5247L41.7035 13.5389L41.6742 13.5532L41.6478 13.5674L41.6214 13.5788L41.5979 13.593L41.5715 13.6044L41.548 13.6158L41.5245 13.6272L41.504 13.6357L41.4835 13.6471L41.4189 13.6727L41.3544 13.6955L41.2898 13.7211L41.2253 13.7468L41.1608 13.7724L41.0991 13.7952L41.0346 13.8179L40.9701 13.8435L40.9085 13.8663L40.8439 13.8891L40.7823 13.9119L40.7178 13.9346L40.6561 13.9574L40.5916 13.9773L40.5271 14.0001L40.4655 14.02L40.4009 14.04L40.3364 14.0599L40.2718 14.0798L40.2073 14.0997L40.1427 14.1168L40.0782 14.1339L40.0107 14.151L39.9462 14.1681L39.8787 14.1851L39.8112 14.2022L39.7437 14.2165L39.6763 14.2307L39.6088 14.2449L39.5384 14.2563L39.468 14.2706L39.3976 14.2819L39.1013 14.3218L38.626 14.3588L37.9923 14.4015L37.2031 14.4527L36.279 14.5154L35.2287 14.5951L34.064 14.6947L32.7966 14.8228L31.4441 14.9765L30.0124 15.1673L28.5162 15.3978L26.9672 15.6683L25.38 15.99L23.7635 16.36L22.1323 16.787L20.4982 17.2767L18.8729 17.8289L17.2711 18.4524L15.7015 19.1498L14.1789 19.9241L12.7149 20.781L11.3214 21.7261L10.0129 22.7594L8.79837 23.8924L7.6894 25.1222L6.70366 26.4601L5.84993 27.9034L5.13996 29.4606L4.58548 31.1373L4.20115 32.9335L3.99873 34.8579L3.98992 36.9132L4.01339 37.6135L4.09554 38.348L4.24223 39.1137L4.45346 39.908L4.72923 40.725L5.07248 41.5619L5.48321 42.4131L5.96435 43.2813L6.5159 44.1553L7.13786 45.0377L7.83316 45.9202L8.60474 46.8027L9.4526 47.6795L10.3738 48.5506L11.3771 49.4074L12.4597 50.2472L13.6215 51.0699L14.8654 51.8698L16.1944 52.6413L17.6085 53.3843L19.1076 54.096L20.6919 54.7678L22.367 55.3997L24.1332 55.9862L25.9873 56.527L27.9353 57.0167L29.9772 57.4522L32.116 57.828L34.3485 58.1411L36.6809 58.3888L39.1101 58.5681L41.639 58.6735L44.3908 58.6649L47.0224 58.5681L49.5279 58.3859L51.9159 58.124L54.1896 57.7853L56.3459 57.3754L58.3878 56.9L60.3212 56.3648L62.146 55.7698L63.8681 55.1236L65.4817 54.4262L66.9984 53.6889L68.4125 52.9117L69.7327 52.1004L70.9561 51.2606L72.0885 50.3952L73.13 49.5099L74.0835 48.6075L74.9519 47.6937L75.7352 46.7742L76.4393 45.8519L77.0642 44.9324L77.6128 44.0215L78.0852 43.1219L78.4871 42.2394L78.8186 41.3769L79.0826 40.5399L79.2821 39.7315L79.4171 38.96L79.4934 38.2284L79.508 37.5395L79.4699 36.899L79.467 36.5375L79.4464 36.1105L79.3995 35.6265L79.3232 35.0885L79.2176 34.4992L79.0738 33.8644L78.889 33.1869L78.6631 32.4724L78.3873 31.7209L78.0617 30.9437L77.6803 30.1381L77.2402 29.3125L76.7356 28.4699L76.1635 27.6159L75.521 26.7505L74.8052 25.8823L74.0101 25.014L73.133 24.1486L72.1677 23.2889L71.1116 22.4434L69.9645 21.615L68.7176 20.8066L67.3681 20.0209L65.9129 19.2665L64.3493 18.5435L62.6711 17.8574L60.8757 17.214L58.9599 16.6162L56.918 16.0668L54.747 15.5715L52.444 15.1359L50.0031 14.7602L50.0237 14.726L50.0442 14.6947L50.0706 14.6634L50.097 14.6321L50.1234 14.6036L50.1528 14.5751L50.185 14.5495L50.2173 14.5239L50.2525 14.4983L50.2906 14.4727L50.3288 14.447L50.3698 14.4243L50.4109 14.4015L50.4549 14.3787L50.4989 14.356L50.5459 14.3332L50.5928 14.3133L50.6427 14.2905L50.6926 14.2677L50.7424 14.2478L50.7952 14.225L50.851 14.2051L50.9067 14.1823L50.9625 14.1595L51.0212 14.1368L51.0798 14.1168L51.1414 14.0912L51.203 14.0684L51.2646 14.0457L51.3292 14.02L51.3937 13.9944L51.4583 13.9688L51.5199 13.9517L51.5844 13.9375L51.646 13.9204L51.7076 13.9062L51.7693 13.8891L51.8338 13.8749L51.8954 13.8578L51.957 13.8435L52.0186 13.8293L52.0802 13.8122L52.1448 13.798L52.2064 13.7838L52.268 13.7724L52.3325 13.7581L52.3941 13.7468L52.4558 13.7325L52.5203 13.7211L52.5848 13.7097L52.6465 13.6984L52.711 13.6898L52.7755 13.6813L52.8401 13.6699L52.9046 13.6642L52.9721 13.6557L53.0366 13.65L53.1041 13.6443L53.1687 13.6386L53.2361 13.6329L53.3036 13.63L53.374 13.6272H53.4415H53.5119L54.1192 13.667L54.8292 13.7382L55.633 13.8407L56.522 13.9773L57.4872 14.1481L58.5199 14.356L59.6142 14.6008L60.7613 14.8826L61.9553 15.2071L63.1845 15.5743L64.4431 15.9843L65.7223 16.4369L67.0131 16.9351L68.3098 17.4816L69.6036 18.0766L70.8886 18.7228L72.1501 19.4174L73.3882 20.1661L74.591 20.9688L75.7499 21.8257L76.8559 22.7395L77.9062 23.7131L78.8861 24.7436L79.7926 25.8367L80.617 26.9925L81.3475 28.2109L81.9812 29.4919L82.5093 30.8412L82.92 32.2589L83.2075 33.7449L83.3659 35.302L83.3835 36.9275L83.3718 37.3488L83.3278 37.8384L83.2456 38.3935L83.1224 39.0084L82.9464 39.6774L82.7205 40.3948L82.4359 41.1577L82.0868 41.9605L81.6673 42.7974L81.1773 43.6628L80.6082 44.5538L79.954 45.4647L79.2147 46.3871L78.3785 47.3208L77.4456 48.2602L76.41 49.1968L75.2629 50.1276L74.0043 51.05L72.6254 51.9552L71.1263 52.8377L69.4951 53.6946L67.7319 54.523L65.8308 55.3143L63.783 56.063L61.5886 56.7662L59.2416 57.4181L56.7332 58.0159L54.0605 58.551L51.2206 59.0208L48.2077 59.4193L45.0157 59.741L41.639 59.9801L40.4625 60L39.1981 59.9858L37.8515 59.9431L36.4315 59.8662L34.947 59.7524L33.4068 59.6015L31.8167 59.4107L30.1885 59.1802L28.528 58.9069L26.841 58.5909L25.1365 58.2265L23.4261 57.8166L21.7157 57.3554L20.0142 56.843L18.3302 56.2794L16.6667 55.6588L15.0385 54.9841L13.4484 54.2497L11.9082 53.4554L10.4266 52.6014L9.00667 51.6819L7.66007 50.6998L6.39561 49.6494L5.22211 48.5306L4.14248 47.3407L3.1714 46.0796L2.31181 44.7445L1.5725 43.3354L0.965209 41.8466L0.492873 40.2809L0.170158 38.6327L0 36.9047L0.00293372 35.9511L0.0733442 34.9917L0.211231 34.0267L0.416595 33.056L0.695303 32.0824L1.04735 31.1117L1.47275 30.1409L1.97736 29.1759L2.55824 28.2166L3.22128 27.2686L3.96352 26.3292L4.79378 25.404L5.70911 24.4959L6.71246 23.602L7.80675 22.731L8.992 21.8826L10.2711 21.0571L11.6441 20.2572L13.1169 19.4886L14.6864 18.7484L16.3587 18.0424L18.1336 17.3706L20.0142 16.7358L22.0033 16.1437L24.098 15.5914L26.3042 15.0819L28.6218 14.6207L31.0539 14.2079L33.6034 13.8435L36.2702 13.5361L39.0572 13.2799L41.9675 13.0806Z" fill="#00CCFF"/>
</svg>
